<svg id="account-svgrepo-com" xmlns="http://www.w3.org/2000/svg" width="19.341" height="19.341" viewBox="0 0 19.341 19.341">
  <path id="Path_217" data-name="Path 217" d="M13.158,1a5.158,5.158,0,1,0,5.158,5.158A5.158,5.158,0,0,0,13.158,1Zm0,1.289A3.868,3.868,0,1,1,9.289,6.158a3.868,3.868,0,0,1,3.868-3.868Z" transform="translate(-3.487 -1)" fill="#999" fill-rule="evenodd"/>
  <path id="Path_218" data-name="Path 218" d="M10.67,19.2c-3.647,0-6.807.758-8.381,1.818A2.492,2.492,0,0,0,1,23a2.492,2.492,0,0,0,1.289,1.986c1.574,1.061,4.734,1.818,8.381,1.818s6.807-.758,8.381-1.818A2.492,2.492,0,0,0,20.341,23a2.492,2.492,0,0,0-1.289-1.986C17.477,19.958,14.317,19.2,10.67,19.2Zm0,1.289a17.389,17.389,0,0,1,7.006,1.231,3.739,3.739,0,0,1,1.092.73.683.683,0,0,1,0,1.108,3.739,3.739,0,0,1-1.092.73,17.389,17.389,0,0,1-7.006,1.231,17.389,17.389,0,0,1-7.006-1.231,3.739,3.739,0,0,1-1.092-.73.683.683,0,0,1,0-1.108,3.739,3.739,0,0,1,1.092-.73,17.389,17.389,0,0,1,7.006-1.231Z" transform="translate(-1 -7.467)" fill="#999" fill-rule="evenodd"/>
</svg>
