<svg xmlns="http://www.w3.org/2000/svg" width="19.996" height="19.291" viewBox="0 0 19.996 19.291">
  <path id="shopping_cart_FILL0_wght400_GRAD0_opsz48" d="M8.569,23.291a1.823,1.823,0,0,1-1.3-.507,1.683,1.683,0,0,1,0-2.463,1.922,1.922,0,0,1,2.6,0,1.683,1.683,0,0,1,0,2.463A1.823,1.823,0,0,1,8.569,23.291Zm10.2,0a1.823,1.823,0,0,1-1.3-.507,1.683,1.683,0,0,1,0-2.463,1.922,1.922,0,0,1,2.6,0,1.683,1.683,0,0,1,0,2.463A1.823,1.823,0,0,1,18.771,23.291ZM7.243,7.356l2.806,5.5h7.346l3.188-5.5ZM6.478,5.907H21.5a.982.982,0,0,1,.893.507.916.916,0,0,1,0,1.014L18.95,13.3a2.214,2.214,0,0,1-.727.736,1.823,1.823,0,0,1-.982.278H9.513L8.085,16.82H20.608v1.449H8.314a1.748,1.748,0,0,1-1.543-.676,1.327,1.327,0,0,1,.013-1.521l1.632-2.849L4.539,5.449H2.55V4H5.534Zm3.571,6.953h0Z" transform="translate(-2.55 -4)" fill="#999"/>
</svg>
