<svg id="Layer_1" data-name="Layer 1" xmlns="http://www.w3.org/2000/svg" viewBox="0 0 315.6 93.7"><defs><style>.cls-1{fill:#e7cb7c;}.cls-2{fill:#fff;}</style></defs><title>Rolletto Turk Logo</title><g id="Layer_1-2" data-name="Layer 1-2"><path class="cls-1" d="M3.5,66.5a1.9,1.9,0,0,0-2.68-.21L.7,66.4A1.92,1.92,0,0,0,.1,68V88.7a4,4,0,0,0,4,4H17.2a4,4,0,0,0,4-4V85.8A4,4,0,0,0,20,82.9Z" transform="translate(0 -0.3)"/><path class="cls-1" d="M64.3,32.8A33.31,33.31,0,0,0,43,1.8h0l-.7-.3h0l-.7-.3h0L40.9,1h-.1L40.1.8h-1L38.4.5h-.1L37.7.3H17.9A17.8,17.8,0,0,0,0,17.6H0V31.7L21.1,52.8V30.9A10.1,10.1,0,0,1,31.2,20.8h0a15.1,15.1,0,0,1,3.6.5h0l.5.2h1.2l.3.2H37l.4.3h.2l.3.2h.2l.3.2h.2l.3.2H39l.4.3h.1l.3.3h.1v.3H40c.1.1.2.2.2.3h.1l.3.4h0l.3.4H41l.2.3v.2l.2.3v.2l.2.4h0c.1.2.2.3.2.5h0l.2.4v1.2h0v.5h0a1.24,1.24,0,0,0,.1.5v2A12.1,12.1,0,0,1,32,44.92L31.4,45h0L48.1,62A33.31,33.31,0,0,0,64.3,33.5Z" transform="translate(0 -0.3)"/><path class="cls-2" d="M59,92.7a4.4,4.4,0,0,0,4.4-4.4h0a4.41,4.41,0,0,0-1.3-3.1h0L9.3,32.5,0,23.1H0v28a4.41,4.41,0,0,0,1.3,3.1L13,66l2.4,2.3,3.2,3.2h0L39.8,92.7Z" transform="translate(0 -0.3)"/><path class="cls-1" d="M94.6,46.8c-6.8,0-12.3,2.1-16.5,6.2s-6.3,10.1-6.3,17.4,2.1,13.2,6.3,17.4S87.8,94,94.6,94s12.3-2.1,16.4-6.2,6.3-10,6.3-17.4S115.2,57.2,111,53,101.3,46.8,94.6,46.8Zm9.3,33.9c-2.2,2.2-5.3,3.3-9.4,3.3s-7.2-1.1-9.4-3.3S81.7,75,81.7,70.4s1.1-8.1,3.4-10.4,5.4-3.3,9.4-3.3,7.2,1.1,9.4,3.3,3.4,5.7,3.4,10.4S106.2,78.5,103.9,80.7Z" transform="translate(0 -0.3)"/><rect class="cls-1" x="124.6" y="29.6" width="10" height="63.3"/><rect class="cls-1" x="144" y="29.6" width="10" height="63.3"/><path class="cls-1" d="M198.6,51.5A23,23,0,0,0,184,47c-6.9,0-12.5,2.1-16.7,6.3s-6.4,9.9-6.4,16.8,2.1,12.4,6.2,16.6,9.6,6.3,16.4,6.4h18.8v-10H183.5c-4,0-7.1-1.2-9.4-3.5a4.36,4.36,0,0,1-1.2-1.5,17.7,17.7,0,0,1-2.1-8.4c.1-4,1.2-7.2,3.4-9.4s5.5-3.3,9.6-3.3a13.76,13.76,0,0,1,8.6,2.5,10.07,10.07,0,0,1,2.4,2.6l-21.5,6.1,2.8,9.6,26.7-7.6a4.81,4.81,0,0,0,3-2.4,5,5,0,0,0,.5-3.8A20.3,20.3,0,0,0,198.6,51.5Z" transform="translate(0 -0.3)"/><path class="cls-1" d="M226.6,79.9c-2.3-2.2-3.4-5.4-3.4-9.5V57.6H237V47.7H223.2V29.9h-10V70.4q0,10.2,6.3,16.5c4.2,4.2,9.6,6.2,16.4,6.3h1.4v-10H236C231.9,83.2,228.8,82.1,226.6,79.9Z" transform="translate(0 -0.3)"/><path class="cls-1" d="M256.1,79.9c-2.3-2.2-3.4-5.4-3.4-9.5V57.6h13.8V47.7H252.7V29.9h-10V70.4q0,10.2,6.3,16.5c4.2,4.2,9.6,6.2,16.4,6.3h1.4v-10h-1.4Q259.4,83.2,256.1,79.9Z" transform="translate(0 -0.3)"/><path class="cls-1" d="M309.2,53c-4.1-4.1-9.7-6.2-16.5-6.2s-12.3,2.1-16.5,6.2S270,63,270,70.4s2.1,13.2,6.3,17.4S286,94,292.8,94s12.3-2.1,16.5-6.2,6.3-10,6.3-17.4S313.4,57.2,309.2,53Zm-7,27.7c-2.2,2.2-5.3,3.3-9.4,3.3s-7.2-1.1-9.4-3.3S280,75,280,70.4s1.1-8.1,3.4-10.4,5.4-3.3,9.4-3.3,7.2,1.1,9.4,3.3,3.4,5.7,3.4,10.4S304.4,78.5,302.2,80.7Z" transform="translate(0 -0.3)"/></g></svg>